<?xml version="1.0" encoding="utf-8"?>
<svg  version="1.1" id="Ebene_1" xmlns="http://www.w3.org/2000/svg" xmlns:xlink="http://www.w3.org/1999/xlink" width="16" height="16" viewBox="0 0 16 16"
	 overflow="visible" enable-background="new 0 0 16 16" xml:space="preserve">
<g>
	<defs>
		<rect id="XMLID_1_" width="16" height="16"/>
	</defs>
	<clipPath id="XMLID_3_">
		<use xlink:href="#XMLID_1_" />
	</clipPath>
	<g clip-path="url(#XMLID_3_)">
		<path fill="#6C707E" d="M13,5H8.094L6.038,3H2.75C2.396,3,2,3.326,2,3.867v8.266C2,12.674,2.396,13,2.75,13H7.1
			c0.07,0.348,0.177,0.683,0.316,1H2.75C1.784,14,1,13.164,1,12.133V3.867C1,2.836,1.784,2,2.75,2h3.288
			c0.261,0,0.511,0.102,0.697,0.283L8.5,4H13c1.104,0,2,0.896,2,2v2c-0.308-0.231-0.643-0.427-1-0.583V6C14,5.448,13.553,5,13,5z"/>
	</g>
</g>
<g id="Ebene_2">
	<g transform="matrix(0.23131,0,0,0.231311,-26.4611,-156.862)">
		<path fill="#3574F0" d="M155.796,743.869c-0.697-0.481-1.25-0.95-1.25-0.95l18.002-31.178c0,0,0.739,0.274,1.355,0.568
			c0.773,0.369,1.41,0.73,1.41,0.73c8.727,5.035,11.72,16.214,6.679,24.941c-5.037,8.727-16.212,11.72-24.939,6.679
			C157.055,744.659,156.447,744.308,155.796,743.869z M173.79,715.676l-15.216,26.349c7.274,4.197,16.588,1.706,20.784-5.569
			C183.56,729.186,181.064,719.872,173.79,715.676z M151.203,739.289c-0.612-0.887-0.83-1.309-0.83-1.309
			c-3.145-5.467-3.375-12.412,0-18.26c3.375-5.845,9.51-9.119,15.813-9.128c0,0,0.849-0.002,1.558,0.065
			c1.068,0.103,1.777,0.241,1.777,0.241l-17.217,29.821C152.305,740.72,151.895,740.293,151.203,739.289z M164.363,713.746
			c-4.589,0.557-8.87,3.188-11.353,7.498c-2.487,4.306-2.626,9.326-0.815,13.582L164.363,713.746z"/>
	</g>
</g>
</svg>
