<?xml version="1.0" encoding="utf-8"?>
<!-- Generator: Adobe Illustrator 12.0.0, SVG Export Plug-In . SVG Version: 6.00 Build 51448)  -->
<svg version="1.1" id="Ebene_1" xmlns="http://www.w3.org/2000/svg" xmlns:xlink="http://www.w3.org/1999/xlink" width="16" height="16"
     viewBox="0 0 16 16"
     overflow="visible" enable-background="new 0 0 16 16" xml:space="preserve">
<g>
	<defs>
		<rect id="XMLID_1_" width="16" height="16"/>
	</defs>
    <clipPath id="XMLID_3_">
		<use xlink:href="#XMLID_1_"/>
	</clipPath>
    <g clip-path="url(#XMLID_3_)">
		<path fill="#CED0D6" d="M13,5H8.094L6.038,3H2.75C2.396,3,2,3.326,2,3.867v8.266C2,12.674,2.396,13,2.75,13H7.1
			c0.07,0.348,0.177,0.683,0.316,1H2.75C1.784,14,1,13.164,1,12.133V3.867C1,2.836,1.784,2,2.75,2h3.288
			c0.261,0,0.511,0.102,0.697,0.283L8.5,4H13c1.104,0,2,0.896,2,2v2c-0.308-0.231-0.643-0.427-1-0.583V6C14,5.448,13.553,5,13,5z"/>
	</g>
</g>
    <g transform="matrix(0.23131,0,0,0.231311,-26.4611,-156.862)">
	<path fill="#548AF7" d="M155.615,744.232c-0.697-0.481-1.25-0.954-1.25-0.954l18.002-31.176c0,0,0.739,0.274,1.355,0.566
		c0.773,0.372,1.41,0.735,1.41,0.735c8.727,5.035,11.72,16.214,6.679,24.936c-5.037,8.731-16.212,11.72-24.939,6.679
		C156.873,745.018,156.265,744.671,155.615,744.232z M173.609,716.039l-15.216,26.344c7.274,4.197,16.588,1.706,20.784-5.564
		C183.378,729.549,180.883,720.235,173.609,716.039z M151.022,739.647c-0.612-0.887-0.827-1.309-0.827-1.309
		c-3.15-5.463-3.378-12.412,0-18.255c3.373-5.845,9.508-9.121,15.811-9.13c0,0,0.849,0,1.558,0.068
		c1.068,0.101,1.777,0.236,1.777,0.236l-17.217,29.825C152.123,741.083,151.714,740.652,151.022,739.647z M164.181,714.107
		c-4.589,0.557-8.87,3.19-11.353,7.496c-2.487,4.306-2.626,9.33-0.815,13.586L164.181,714.107z"/>
</g>
</svg>
