<?xml version="1.0" encoding="UTF-8" standalone="no"?>
<!DOCTYPE svg PUBLIC "-//W3C//DTD SVG 1.1//EN" "http://www.w3.org/Graphics/SVG/1.1/DTD/svg11.dtd">
<svg width="16" height="16" viewBox="10 10 240 240" version="1.1" xmlns="http://www.w3.org/2000/svg"
     xml:space="preserve" style="fill-rule:evenodd;clip-rule:evenodd;stroke-linejoin:round;stroke-miterlimit:2;">
    <g>
        <path d="M73.12155596,212.25484135999997 C69.2873614,209.62252218 66.25696909,207.07347495999997 66.25696909,207.07347495999997 L164.86118375,36.28546073199999 C164.86118375,36.28546073199999 168.91998032,37.79083272 172.27258746,39.39821285900001 C176.49862116,41.42380328600001 179.99903539,43.398505293 179.99903539,43.398505293 C227.79485200000002,70.99390759299999 244.19704409999997,132.20273047999999 216.60176109999998,179.99852241 C189.00578417,227.79662745 127.79722589999999,244.19657734999996 80.00071535999999,216.60117504999997 C80.00071535999999,216.60117504999997 76.65296572999999,214.67666753 73.12155596,212.25484135999997 ZM171.66586133,57.832080382000015 L88.33388941999999,202.16736865 C128.16431487,225.16430826999996 179.17140821,211.49614128 202.16755448,171.66670019 C225.16254419999999,131.83494598999997 211.4967494,80.82855737999998 171.66586133,57.832080382000015 ZM47.941843289999994,187.18072895999998 C44.59085532,182.32782418000002 43.397989649999985,180.00083551999998 43.397989649999985,180.00083551999998 C26.171177399999994,150.07844456 24.907762180000002,112.02778506000001 43.39868357999998,80.000464 C61.88960498,47.973142939999974 95.47304125999999,30.042608153000003 130.00045365,30.000046929000007 C130.00045365,30.000046929000007 134.66204408,29.988018756999992 138.54342588,30.35973553400001 C144.39094268000002,30.919970776000014 148.27856985,31.674507257999977 148.27856985,31.674507257999977 L53.981810010000004,195.00135387000003 C53.981810010000004,195.00135387000003 51.744811,192.68593076 47.941843289999994,187.18072895999998 ZM120.02544121000001,47.27735945200001 C94.89638543,50.331358585000004 71.45172907,64.74411568399998 57.83219626999998,88.33459932999997 C44.212663469999995,111.92369511000001 43.45350404999999,139.43351234000002 53.37300209,162.72421693000004 L120.02544121000001,47.27735945200001 Z"
              style="fill:#6c707e;"/>
    </g>
</svg>
