<?xml version="1.0" encoding="utf-8"?>
<svg xmlns="http://www.w3.org/2000/svg" version="1.1" id="Ebene_1" width="16" height="16" viewBox="0 0 16 16"
	 overflow="visible" enable-background="new 0 0 16 16" xml:space="preserve">
<circle fill="#25324D" stroke="#548AF7" cx="8" cy="8" r="6.5"/>
<g enable-background="new    ">
	<path fill="#548AF7" d="M5.905,10.728c0.468,0.301,1.14,0.528,1.86,0.528c1.068,0,1.692-0.552,1.692-1.38
		c0-0.744-0.432-1.188-1.524-1.596C6.613,7.8,5.797,7.104,5.797,5.976c0-1.26,1.044-2.195,2.616-2.195
		c0.815,0,1.428,0.191,1.776,0.396L9.9,5.028C9.648,4.872,9.109,4.644,8.377,4.644c-1.104,0-1.524,0.66-1.524,1.212
		c0,0.757,0.492,1.129,1.608,1.561c1.368,0.54,2.053,1.188,2.053,2.376c0,1.248-0.912,2.34-2.821,2.34
		c-0.78,0-1.632-0.24-2.064-0.528L5.905,10.728z"/>
</g>
</svg>
